<svg xmlns="http://www.w3.org/2000/svg" version="1.1" xmlnsXlink="http://www.w3.org/1999/xlink" xmlns:svgjs="http://svgjs.dev/svgjs" width="350" height="200.54999999999998"><g><svg viewBox="0 0 395.52 69.11402741688265" height="69.11402741688265" width="350" xmlns="http://www.w3.org/2000/svg" version="1.1" xmlnsXlink="http://www.w3.org/1999/xlink" xmlns:svgjs="http://svgjs.com/svgjs" x="0" y="65.71798629155867" viewbox="0 0 350 200.54999999999998"><g><svg viewBox="0 0 395.52 69.11402741688265" height="69.11402741688265" width="395.52"><g transform="matrix(1,0,0,1,0,42.715241660899004)"><svg viewBox="0 0 395.52 26.39878575598365" height="26.39878575598365" width="395.52"><g><svg viewBox="0 0 395.52 26.39878575598365" height="26.39878575598365" width="395.52"><g><svg viewBox="0 0 395.52 26.39878575598365" height="26.39878575598365" width="395.52"><g transform="matrix(1,0,0,1,0,0)"><svg width="395.52" viewBox="3.25 -33.900001525878906 513.8599853515625 34.30000305175781" height="26.39878575598365" data-palette-color="#ee3e38"><path d="M11-13.8L11-6.15 24.2-6.15 24.2 0 3.25 0 3.25-33.7 24-33.7 24-27.55 11-27.55 11-19.9 22.6-19.9 22.6-13.8 11-13.8ZM51-33.7L59.2-33.7 47.85 0 39.35 0 28.15-33.7 36.45-33.7 40.5-20.25Q41.6-16.65 42.4-13.33 43.2-10 43.45-8.5L43.45-8.5 43.7-6.95Q44.5-12.15 46.95-20.25L46.95-20.25 51-33.7ZM71.15-13.8L71.15-6.15 84.35-6.15 84.35 0 63.4 0 63.4-33.7 84.15-33.7 84.15-27.55 71.15-27.55 71.15-19.9 82.75-19.9 82.75-13.8 71.15-13.8ZM102.09-27.45L98.29-27.45 98.29-17.95 101.94-17.95Q106.94-17.95 106.94-22.85L106.94-22.85Q106.94-25 105.64-26.23 104.34-27.45 102.09-27.45L102.09-27.45ZM117.14 0L107.94 0 100.64-11.7 98.29-11.7 98.29 0 90.59 0 90.59-33.7 102.24-33.7Q107.89-33.7 111.32-30.7 114.74-27.7 114.74-22.9L114.74-22.9Q114.74-15.7 108.59-12.95L108.59-12.95 117.14 0ZM140.59-33.7L149.54-33.7 137.89-12.4 137.89 0 130.19 0 130.19-12.35 118.69-33.7 127.69-33.7 129.74-28.8Q131.34-25 132.39-22.3 133.44-19.6 133.74-18.8L133.74-18.8 133.99-18Q134.49-20.25 138.39-28.8L138.39-28.8 140.59-33.7ZM161.34-27.35L161.34-6.3 164.84-6.3Q169.49-6.3 172.01-9.2 174.54-12.1 174.54-17.4L174.54-17.4Q174.54-21.9 171.99-24.63 169.44-27.35 164.79-27.35L164.79-27.35 161.34-27.35ZM153.44 0L153.44-33.7 165.04-33.7Q172.64-33.7 177.49-29.03 182.34-24.35 182.34-17.4L182.34-17.4Q182.34-9.3 177.56-4.65 172.79 0 164.94 0L164.94 0 153.44 0ZM197.79-14.3L197.44-13.1 205.54-13.1 205.19-14.3Q203.74-19.2 202.81-22.65 201.89-26.1 201.69-27.1L201.69-27.1 201.49-28.1Q201.09-25.35 197.79-14.3L197.79-14.3ZM217.69 0L209.44 0 207.39-6.9 195.59-6.9 193.54 0 185.49 0 196.74-33.7 206.44-33.7 217.69 0ZM241.38-33.7L250.33-33.7 238.68-12.4 238.68 0 230.98 0 230.98-12.35 219.48-33.7 228.48-33.7 230.53-28.8Q232.13-25 233.18-22.3 234.23-19.6 234.53-18.8L234.53-18.8 234.78-18Q235.28-20.25 239.18-28.8L239.18-28.8 241.38-33.7ZM261.98-13.8L261.98-6.15 275.18-6.15 275.18 0 254.23 0 254.23-33.7 274.98-33.7 274.98-27.55 261.98-27.55 261.98-19.9 273.58-19.9 273.58-13.8 261.98-13.8ZM300.88-32.2L300.88-32.2 300.88-25Q296.83-27.35 292.48-27.35L292.48-27.35Q290.53-27.35 289.5-26.55 288.48-25.75 288.48-24.5 288.48-23.25 289.73-22.28 290.98-21.3 293.48-20.2L293.48-20.2Q295.03-19.5 296.05-18.98 297.08-18.45 298.4-17.53 299.73-16.6 300.5-15.58 301.28-14.55 301.83-13.05 302.38-11.55 302.38-9.8L302.38-9.8Q302.38-5.25 299.03-2.43 295.68 0.4 290.13 0.4L290.13 0.4Q284.18 0.4 280.43-1.7L280.43-1.7 280.43-9.45Q284.98-6.15 290.13-6.15L290.13-6.15Q291.88-6.15 293.03-7.08 294.18-8 294.18-9.5L294.18-9.5Q294.18-10 294.03-10.45 293.88-10.9 293.48-11.3 293.08-11.7 292.7-11.98 292.33-12.25 291.6-12.63 290.88-13 290.38-13.25 289.88-13.5 288.9-13.95 287.93-14.4 287.33-14.65L287.33-14.65Q284.08-16.15 282.1-18.35 280.13-20.55 280.13-24.2L280.13-24.2Q280.13-28.55 283.33-31.23 286.53-33.9 292.18-33.9L292.18-33.9Q297.23-33.9 300.88-32.2ZM326.58-32.2L326.58-32.2 326.58-25Q322.53-27.35 318.18-27.35L318.18-27.35Q316.23-27.35 315.2-26.55 314.18-25.75 314.18-24.5 314.18-23.25 315.43-22.28 316.68-21.3 319.18-20.2L319.18-20.2Q320.73-19.5 321.75-18.98 322.78-18.45 324.1-17.53 325.43-16.6 326.2-15.58 326.98-14.55 327.53-13.05 328.08-11.55 328.08-9.8L328.08-9.8Q328.08-5.25 324.73-2.43 321.38 0.4 315.83 0.4L315.83 0.4Q309.88 0.4 306.13-1.7L306.13-1.7 306.13-9.45Q310.68-6.15 315.83-6.15L315.83-6.15Q317.58-6.15 318.73-7.08 319.88-8 319.88-9.5L319.88-9.5Q319.88-10 319.73-10.45 319.58-10.9 319.18-11.3 318.78-11.7 318.4-11.98 318.03-12.25 317.3-12.63 316.58-13 316.08-13.25 315.58-13.5 314.6-13.95 313.63-14.4 313.03-14.65L313.03-14.65Q309.78-16.15 307.8-18.35 305.83-20.55 305.83-24.2L305.83-24.2Q305.83-28.55 309.03-31.23 312.23-33.9 317.88-33.9L317.88-33.9Q322.93-33.9 326.58-32.2ZM340.57-13.8L340.57-6.15 353.77-6.15 353.77 0 332.82 0 332.82-33.7 353.57-33.7 353.57-27.55 340.57-27.55 340.57-19.9 352.17-19.9 352.17-13.8 340.57-13.8ZM367.72 0L360.02 0 360.02-33.7 368.47-33.7 376.32-19.75Q377.97-16.8 379.2-14.23 380.42-11.65 380.77-10.6L380.77-10.6 381.17-9.5Q380.67-13.2 380.67-19.75L380.67-19.75 380.67-33.7 388.37-33.7 388.37 0 379.92 0 371.87-13.95Q370.27-16.65 369.05-19.28 367.82-21.9 367.37-23.15L367.37-23.15 366.97-24.4Q367.72-19.9 367.72-13.95L367.72-13.95 367.72 0ZM393.12-33.7L417.32-33.7 417.32-27.5 409.12-27.5 409.12 0 401.37 0 401.37-27.5 393.12-27.5 393.12-33.7ZM430.27 0L422.57 0 422.57-33.7 430.27-33.7 430.27 0ZM447.46-14.3L447.11-13.1 455.21-13.1 454.86-14.3Q453.41-19.2 452.49-22.65 451.56-26.1 451.36-27.1L451.36-27.1 451.16-28.1Q450.76-25.35 447.46-14.3L447.46-14.3ZM467.36 0L459.11 0 457.06-6.9 445.26-6.9 443.21 0 435.16 0 446.41-33.7 456.11-33.7 467.36 0ZM479.46-33.7L479.46-6.75 491.91-6.75 491.91 0 471.76 0 471.76-33.7 479.46-33.7ZM515.61-32.2L515.61-32.2 515.61-25Q511.56-27.35 507.21-27.35L507.21-27.35Q505.26-27.35 504.23-26.55 503.21-25.75 503.21-24.5 503.21-23.25 504.46-22.28 505.71-21.3 508.21-20.2L508.21-20.2Q509.76-19.5 510.78-18.98 511.81-18.45 513.13-17.53 514.46-16.6 515.23-15.58 516.01-14.55 516.56-13.05 517.11-11.55 517.11-9.8L517.11-9.8Q517.11-5.25 513.76-2.43 510.41 0.4 504.86 0.4L504.86 0.4Q498.91 0.4 495.16-1.7L495.16-1.7 495.16-9.45Q499.71-6.15 504.86-6.15L504.86-6.15Q506.61-6.15 507.76-7.08 508.91-8 508.91-9.5L508.91-9.5Q508.91-10 508.76-10.45 508.61-10.9 508.21-11.3 507.81-11.7 507.43-11.98 507.06-12.25 506.33-12.63 505.61-13 505.11-13.25 504.61-13.5 503.63-13.95 502.66-14.4 502.06-14.65L502.06-14.65Q498.81-16.15 496.83-18.35 494.86-20.55 494.86-24.2L494.86-24.2Q494.86-28.55 498.06-31.23 501.26-33.9 506.91-33.9L506.91-33.9Q511.96-33.9 515.61-32.2Z" opacity="1" transform="matrix(1,0,0,1,0,0)" fill="#ee3e38" class="undefined-text-0" data-fill-palette-color="primary" id="text-0"></path></svg></g></svg></g></svg></g></svg></g><g transform="matrix(1,0,0,1,179.51843904261528,0)"><svg viewBox="0 0 36.48312191476941 36.483121914769406" height="36.483121914769406" width="36.48312191476941"><g><svg></svg></g><g id="icon-0"><svg viewBox="0 0 36.48312191476941 36.483121914769406" height="36.483121914769406" width="36.48312191476941"><g><path xmlns="http://www.w3.org/2000/svg" d="M10.945 36.483c-6.045 0-10.945-4.9-10.945-10.945v-14.593c0-6.045 4.9-10.945 10.945-10.945h14.593c6.045 0 10.945 4.9 10.945 10.945v14.593c0 6.045-4.9 10.945-10.945 10.945z" fill="#5e1914" fill-rule="nonzero" stroke="none" stroke-width="1" stroke-linecap="butt" stroke-linejoin="miter" stroke-miterlimit="10" stroke-dasharray="" stroke-dashoffset="0" font-family="none" font-weight="none" font-size="none" text-anchor="none" style="mix-blend-mode: normal" data-fill-palette-color="accent"></path></g><g transform="matrix(1,0,0,1,9.569098960342581,7.2966243829538815)"><svg viewBox="0 0 17.34492399408425 21.889873148861643" height="21.889873148861643" width="17.34492399408425"><g><svg xmlns="http://www.w3.org/2000/svg" xmlnsXlink="http://www.w3.org/1999/xlink" version="1.1" x="0" y="0" viewBox="-250.70001220703125 140.98709106445312 63.399993896484375 80.01290893554688" enable-background="new -269 131 100 100" xmlSpace="preserve" height="21.889873148861643" width="17.34492399408425" class="icon-a-0" data-fill-palette-color="quaternary" id="a-0"><path d="M-200.1 163.7l-1-0.8c-1.2-1-3.1-0.6-3.8 0.8-0.3 0.7-0.6 7.7-0.6 8.9 0 0.2 0 0.6 0 0.7 0 1-0.9 1.8-1.9 1.6-0.8-0.1-1.4-0.9-1.4-1.7-0.1-12-3.7-20.4-10.5-26.7-4.1-3.8-9-7.2-10.5-4.6-0.4 0.7 0.2 2.2 0.9 4.1 1.4 4.3-2.9 11.2-9 18.1-5.7 6.5-12.8 14.5-12.8 26.4 0 16 15.1 30.5 31.7 30.5 16.6 0 31.7-14.5 31.7-30.5C-187.3 180.4-192.1 170.4-200.1 163.7zM-219 215.2c-7.2 0-13.1-5.9-13.1-13.1 0-3.6 1.4-6.8 3.8-9.2l7.2-8.6c1.1-1.3 3.2-1.3 4.3 0l7.2 8.6c2.3 2.4 3.8 5.6 3.8 9.2C-205.9 209.3-211.8 215.2-219 215.2z" fill="#ffffff" data-fill-palette-color="quaternary"></path></svg></g></svg></g></svg></g></svg></g><g></g></svg></g><defs></defs></svg></g></svg>